<svg version="1.1" id="Layer_1" xmlns="http://www.w3.org/2000/svg" xmlns:xlink="http://www.w3.org/1999/xlink" x="0px" y="0px"
	 viewBox="57 31 42 38" style="enable-background:new 57 31 42 38;" xml:space="preserve">
<style type="text/css">
	.st0{fill:#346F91;}
</style>
<g>
	<path class="st0" d="M93,48h-4v-5c0-0.3-0.8-1-1.1-1h-1.3c-0.3,0-0.6,0.6-0.6,1v5h-4.6c-0.3,0-0.4-0.2-0.4,0.1v1.3
		c0,0.3,0.1,0.6,0.4,0.6H86v4.6c0,0.3,0.3,0.4,0.6,0.4h1.3c0.3,0,1.1-0.1,1.1-0.4V50h4c0.3,0,1-0.2,1-0.6v-1.3
		C94,47.8,93.4,48,93,48z"/>
	<path class="st0" d="M77.8,51.5c-1-0.7-1.8-1.7-1.8-2c0-0.6,0-0.8,1.3-1.8c1.6-1.3,2.5-3,2.5-4.7c0-1.6-0.5-3-1.3-4h0.6
		c0.1,0,0.3,0,0.4-0.1l1.8-1.3c0.2-0.2,0.3-0.2,0.2-0.5c-0.1-0.3-0.3-0.2-0.6-0.2h-8c-0.9,0-1.8-0.1-2.6,0.2c-2.9,1-4.9,3.4-4.9,5.9
		c0,3.6,2.8,6.3,6.5,6.4c-0.1,0.3-0.1,0.5-0.1,0.8c0,0.6,0.1,1.1,0.4,1.6h-0.1c-3.5,0-6.8,1.7-8,4.3c-0.3,0.7-0.5,1.4-0.5,2
		c0,0.7,0.2,1.3,0.5,1.9c0.8,1.4,2.4,2.4,4.6,3c1.1,0.3,2.4,0.4,3.7,0.4c1.1,0,2.2-0.2,3.3-0.4c3.2-0.9,5.2-3.2,5.2-5.9
		C80.9,54.6,80.1,53,77.8,51.5z M69.5,42.7c-0.2-1.3,0.1-2.4,0.8-3.2c0.4-0.5,1-0.7,1.6-0.7H72c1.8,0.1,3.4,2,3.8,4.4
		c0.2,1.3-0.1,2.4-0.8,3.1c-0.4,0.5-1,0.6-1.6,0.6l0,0l0,0C71.5,47,69.8,45.1,69.5,42.7z M72.4,61c-2.6,0-4.6-1.6-4.6-3.6
		c0-1.9,2.4-3.5,5.1-3.5H73c0.6,0,1.2,0.1,1.7,0.3c0.2,0.1,0.4,0.3,0.5,0.4c1.3,0.9,2.1,1.4,2.3,2.3c0.1,0.2,0.1,0.5,0.1,0.7
		C77.6,59.8,75.8,61,72.4,61z"/>
</g>
</svg>
